# xmcd
#
# Track frame offsets:
#	150
#	23869
#	47574
#	63590
#	86992
#	109856
#	134950
#	158351
#	188341
#	209030
#	231953
#	255943
#	277160
#	298845
#
# Disc length: 4385 seconds
#
# Revision: 2
# Processed by: cddbd v1.5.2PL0 Copyright (c) Steve Scherf et al.
# Submitted via: EasyCDDAExtractor 16.1.0.1
#
DISCID=d4111f0e
DTITLE=Various Artist - Playa Azul - Flamenco Chill vol.3
DYEAR=2006
DGENRE=Lo-Fi
TTITLE0=Jose Delgado - Freegull
TTITLE1=Moca - Kleine Träumerei
TTITLE2=Chambao - Como El Agua
TTITLE3=De Madera - Canaveral
TTITLE4=Agua Loco - Love Will Come
TTITLE5=Jose Delgado - Life At Sundown
TTITLE6=Almadrava - Distancia Del Mar
TTITLE7=Lenny Mac Dowell - Te Quero
TTITLE8=ESO ES - Spirit Of The Light
TTITLE9=Spiral feat. Dana - La Meme Chose
TTITLE10=Jose Delgado - Summerset Area
TTITLE11=Raul Orellana feat. Pilar Romero (La Tana) - Gipsy Rhythm "Ahora Esto
TTITLE11=y Aqui" (New Millenium Vocal Edit)
TTITLE12=Mystic Diversions - Beneath Another Sky
TTITLE13=Agua Loca - Vientos De Primavera
EXTD=
EXTT0=
EXTT1=
EXTT2=
EXTT3=
EXTT4=
EXTT5=
EXTT6=
EXTT7=
EXTT8=
EXTT9=
EXTT10=
EXTT11=
EXTT12=
EXTT13=
PLAYORDER=
